<?xml version="1.0" encoding="utf-8"?>
<!-- Generator: Adobe Illustrator 19.1.0, SVG Export Plug-In . SVG Version: 6.00 Build 0)  -->
<svg version="1.1" id="Layer_1" xmlns="http://www.w3.org/2000/svg" xmlns:xlink="http://www.w3.org/1999/xlink" x="0px" y="0px"
	 viewBox="-184 276 230 50" style="enable-background:new -184 276 230 50;" xml:space="preserve">
<style type="text/css">
	.st0{fill:#FF1D58;}
</style>
<g>
	<path class="st0" d="M-180.1,303.1c0-2,0.4-3.8,1.1-5.3s1.7-2.8,3-3.8s2.8-1.8,4.5-2.3s3.6-0.8,5.7-0.8c2.5,0,4.7,0.4,6.7,1.2
		c2,0.8,3.5,2,4.7,3.5c1.2-1.5,2.8-2.7,4.7-3.5s4.1-1.2,6.6-1.2c2,0,3.9,0.3,5.6,0.8s3.2,1.3,4.5,2.3s2.3,2.3,3,3.8s1.1,3.3,1.1,5.3
		v20.4h-10.1V306c0-2.1-0.4-3.6-1.3-4.6c-0.9-0.9-2.1-1.4-3.7-1.4c-1.6,0-2.9,0.5-4,1.6c-1,1.1-1.5,2.8-1.5,5.2v16.7h-10.1v-16.7
		c0-2.4-0.5-4.1-1.5-5.2s-2.3-1.6-3.9-1.6c-1.6,0-2.8,0.5-3.7,1.4s-1.3,2.4-1.3,4.6v17.6h-10.1V303.1L-180.1,303.1z"/>
	<path class="st0" d="M-113,308.7c0,4.3,2,6.5,5.9,6.5s5.9-2.2,5.9-6.5v-12.6c0-1.6,0.5-2.8,1.4-3.4c1-0.7,2.2-1,3.8-1
		c1.1,0,2.1,0.1,3.1,0.4c0.9,0.3,1.5,0.4,1.7,0.5v17.9c0,2.3-0.4,4.4-1.2,6.1c-0.8,1.7-1.9,3.2-3.3,4.3c-1.4,1.1-3.1,2-5.1,2.6
		s-4.1,0.9-6.3,0.9s-4.4-0.3-6.3-0.9c-2-0.6-3.6-1.4-5.1-2.6c-1.4-1.1-2.5-2.6-3.3-4.3c-0.8-1.7-1.2-3.8-1.2-6.1v-14.4
		c0-1.6,0.5-2.8,1.4-3.4c1-0.7,2.2-1,3.8-1c1.1,0,2.1,0.1,3.1,0.4c0.9,0.3,1.5,0.4,1.7,0.5V308.7L-113,308.7z"/>
	<path class="st0" d="M-85.1,281.9c0-1.6,0.5-2.8,1.4-3.4c1-0.7,2.2-1,3.8-1c1.1,0,2.1,0.1,3,0.4s1.5,0.4,1.7,0.5v15.8
		c0.7-0.7,1.9-1.5,3.4-2.3s3.4-1.2,5.8-1.2c2.1,0,4.1,0.4,6,1.2c1.9,0.8,3.5,1.9,4.9,3.4s2.5,3.2,3.3,5.3s1.2,4.4,1.2,6.9
		s-0.4,4.8-1.3,6.9c-0.9,2.1-2.1,3.9-3.6,5.3c-1.5,1.5-3.4,2.6-5.5,3.4s-4.4,1.2-6.8,1.2c-3,0-5.7-0.5-8.2-1.6s-4.5-2.7-6.1-4.7
		c-1-1.3-1.8-3-2.3-4.9c-0.5-2-0.8-4.3-0.8-6.9L-85.1,281.9C-85.2,281.9-85.1,281.9-85.1,281.9z M-68,315.2c2.1,0,3.8-0.7,5.2-2.1
		s2-3.2,2-5.4c0-2.2-0.7-4.1-2-5.5c-1.4-1.4-3.1-2.2-5.2-2.2c-1,0-2,0.2-2.9,0.6s-1.6,0.9-2.3,1.6c-0.6,0.7-1.1,1.5-1.5,2.4
		s-0.5,1.9-0.5,3c0,2.3,0.7,4.2,2,5.5C-71.7,314.5-70,315.2-68,315.2z"/>
	<path class="st0" d="M-35.3,311.8c0.1,0.5,0.3,1,0.7,1.5s0.9,0.9,1.5,1.3s1.5,0.7,2.5,1c1,0.2,2.2,0.4,3.6,0.4
		c1.1,0,2.1-0.1,3.1-0.3c1-0.2,1.8-0.4,2.5-0.6s1.3-0.4,1.7-0.6c0.5-0.2,0.7-0.4,0.8-0.4l3.5,7c-0.3,0.2-0.9,0.5-1.7,0.9
		s-1.7,0.7-2.9,1.1s-2.5,0.7-4.1,1s-3.3,0.4-5.2,0.4c-2.3,0-4.5-0.4-6.6-1.1c-2-0.7-3.8-1.8-5.3-3.3c-1.5-1.4-2.7-3.2-3.6-5.3
		s-1.3-4.5-1.3-7.1c0-2.5,0.4-4.8,1.3-6.9c0.9-2.1,2.1-3.9,3.6-5.3c1.5-1.5,3.4-2.6,5.4-3.4c2.1-0.8,4.3-1.2,6.7-1.2
		c2.2,0,4.3,0.3,6.1,0.9s3.3,1.4,4.5,2.5c1.2,1,2.2,2.2,2.8,3.6c0.6,1.3,1,2.7,1,4.1c0,1.5-0.3,2.9-0.8,4.2
		c-0.5,1.2-1.5,2.3-2.9,3.1c-1.4,0.9-3.3,1.5-5.7,2s-5.4,0.7-9.2,0.7h-2L-35.3,311.8L-35.3,311.8z M-35.9,305.3c2.8,0,5-0.1,6.5-0.3
		s2.7-0.5,3.4-0.8s1.2-0.7,1.4-1.1s0.2-0.8,0.2-1.2c0-0.9-0.4-1.6-1.2-2.3c-0.8-0.6-2-1-3.6-1c-1.1,0-2.1,0.2-2.9,0.6
		c-0.8,0.4-1.5,0.9-2.1,1.5s-1,1.3-1.3,2.2C-35.6,303.6-35.9,304.5-35.9,305.3z"/>
	<path class="st0" d="M-9.7,303.5c0-2,0.3-3.9,1-5.4c0.7-1.6,1.6-2.9,2.8-4s2.7-1.9,4.4-2.5s3.6-0.8,5.6-0.8c2.5,0,4.4,0.3,5.8,0.8
		s2.4,1.1,3,1.7c0.4,0.4,0.7,0.9,0.9,1.3c0.2,0.5,0.3,1,0.3,1.6s-0.1,1.2-0.3,1.7s-0.4,1-0.7,1.4c-0.3,0.4-0.5,0.8-0.8,1.1
		c-0.3,0.3-0.4,0.5-0.6,0.6c-0.7-0.3-1.6-0.6-2.6-0.9s-2.1-0.4-3.3-0.4c-1.6,0-2.9,0.5-4,1.4s-1.7,2.4-1.7,4.6v17.8h-9.8L-9.7,303.5
		L-9.7,303.5z"/>
	<path class="st0" d="M18,286.7c0-1.6,0.5-2.8,1.4-3.4c1-0.7,2.2-1,3.8-1c1.1,0,2.1,0.1,3.1,0.4c0.9,0.3,1.5,0.4,1.7,0.5v8.4h7.2
		c1.9,0,3.2,0.4,4,1.1c0.8,0.8,1.2,1.9,1.2,3.4c0,1.1-0.2,2.1-0.5,3s-0.6,1.6-0.7,1.8H28.1v9.8c0,1,0.1,1.7,0.4,2.3s0.7,1,1.1,1.3
		s0.9,0.6,1.5,0.7s1.1,0.2,1.7,0.2c1.2,0,2.2-0.2,3.2-0.5c1-0.4,1.6-0.7,2.1-0.9l3.9,6.9c-0.4,0.3-0.9,0.7-1.6,1.1s-1.6,0.8-2.6,1.2
		c-1,0.4-2.1,0.7-3.4,1c-1.2,0.3-2.6,0.4-3.9,0.4c-3.9,0-7-1-9.2-3.1s-3.3-4.8-3.3-8.3L18,286.7L18,286.7z"/>
</g>
</svg>
