<?xml version="1.0" encoding="utf-8"?>
<!-- Generator: Adobe Illustrator 19.0.0, SVG Export Plug-In . SVG Version: 6.00 Build 0)  -->
<svg version="1.1" id="Layer_1" xmlns="http://www.w3.org/2000/svg" xmlns:xlink="http://www.w3.org/1999/xlink" x="0px" y="0px"
	 viewBox="-185 379.7 200 42.3" style="enable-background:new -185 379.7 200 42.3;" xml:space="preserve">
<g>
	<path d="M-185,402.7c0-1.8,0.4-3.4,1-4.8c0.6-1.4,1.5-2.5,2.7-3.4c1.2-0.9,2.5-1.6,4.1-2.1s3.2-0.7,5.1-0.7c2.3,0,4.2,0.4,6,1.1
		c1.8,0.7,3.2,1.8,4.2,3.2c1.1-1.4,2.5-2.4,4.2-3.2c1.7-0.7,3.7-1.1,5.9-1.1c1.8,0,3.5,0.3,5,0.7s2.9,1.2,4.1,2.1
		c1.2,0.9,2.1,2.1,2.7,3.4c0.6,1.4,1,3,1,4.8v18.4h-9.1v-15.8c0-1.9-0.4-3.2-1.2-4.1c-0.8-0.8-1.9-1.3-3.3-1.3
		c-1.4,0-2.6,0.5-3.6,1.4c-0.9,1-1.4,2.5-1.4,4.7v15h-9.1v-15c0-2.2-0.5-3.7-1.4-4.7c-0.9-1-2.1-1.4-3.5-1.4c-1.4,0-2.5,0.5-3.3,1.3
		c-0.8,0.8-1.2,2.2-1.2,4.1v15.8h-9.1V402.7L-185,402.7z"/>
	<path d="M-124.6,407.8c0,3.9,1.8,5.9,5.3,5.9s5.3-2,5.3-5.9v-11.3c0-1.4,0.5-2.5,1.3-3.1c0.9-0.6,2-0.9,3.4-0.9
		c1,0,1.9,0.1,2.8,0.4c0.8,0.3,1.4,0.4,1.5,0.5v16.1c0,2.1-0.4,4-1.1,5.5s-1.7,2.9-3,3.9c-1.3,1-2.8,1.8-4.6,2.3
		c-1.8,0.5-3.7,0.8-5.7,0.8s-4-0.3-5.7-0.8c-1.8-0.5-3.2-1.3-4.6-2.3c-1.3-1-2.3-2.3-3-3.9c-0.7-1.5-1.1-3.4-1.1-5.5v-13
		c0-1.4,0.5-2.5,1.3-3.1c0.9-0.6,2-0.9,3.4-0.9c1,0,1.9,0.1,2.8,0.4c0.8,0.3,1.4,0.4,1.5,0.5V407.8L-124.6,407.8z"/>
	<path d="M-99.5,383.6c0-1.4,0.5-2.5,1.3-3.1c0.9-0.6,2-0.9,3.4-0.9c1,0,1.9,0.1,2.7,0.4s1.4,0.4,1.5,0.5v14.2
		c0.6-0.6,1.7-1.4,3.1-2.1c1.4-0.7,3.1-1.1,5.2-1.1c1.9,0,3.7,0.4,5.4,1.1c1.7,0.7,3.2,1.7,4.4,3.1s2.3,2.9,3,4.8s1.1,4,1.1,6.2
		s-0.4,4.3-1.2,6.2s-1.9,3.5-3.2,4.8c-1.4,1.4-3.1,2.3-5,3.1c-1.9,0.7-4,1.1-6.1,1.1c-2.7,0-5.1-0.5-7.4-1.4c-2.3-1-4.1-2.4-5.5-4.2
		c-0.9-1.2-1.6-2.7-2.1-4.4c-0.5-1.8-0.7-3.9-0.7-6.2L-99.5,383.6C-99.5,383.6-99.5,383.6-99.5,383.6z M-84.1,413.6
		c1.9,0,3.4-0.6,4.7-1.9s1.8-2.9,1.8-4.9c0-2-0.6-3.7-1.8-5c-1.3-1.3-2.8-2-4.7-2c-0.9,0-1.8,0.2-2.6,0.5s-1.4,0.8-2.1,1.4
		c-0.5,0.6-1,1.4-1.4,2.2c-0.4,0.8-0.5,1.7-0.5,2.7c0,2.1,0.6,3.8,1.8,5C-87.4,413-85.9,413.6-84.1,413.6z"/>
	<path d="M-54.6,410.6c0.1,0.5,0.3,0.9,0.6,1.4c0.4,0.5,0.8,0.8,1.4,1.2c0.5,0.4,1.4,0.6,2.3,0.9c0.9,0.2,2,0.4,3.2,0.4
		c1,0,1.9-0.1,2.8-0.3c0.9-0.2,1.6-0.4,2.3-0.5s1.2-0.4,1.5-0.5c0.5-0.2,0.6-0.4,0.7-0.4l3.2,6.3c-0.3,0.2-0.8,0.5-1.5,0.8
		s-1.5,0.6-2.6,1s-2.3,0.6-3.7,0.9c-1.4,0.3-3,0.4-4.7,0.4c-2.1,0-4.1-0.4-5.9-1c-1.8-0.6-3.4-1.6-4.8-3c-1.4-1.3-2.4-2.9-3.2-4.8
		s-1.2-4.1-1.2-6.4c0-2.3,0.4-4.3,1.2-6.2c0.8-1.9,1.9-3.5,3.2-4.8c1.4-1.4,3.1-2.3,4.9-3.1c1.9-0.7,3.9-1.1,6-1.1
		c2,0,3.9,0.3,5.5,0.8c1.6,0.5,3,1.3,4.1,2.3c1.1,0.9,2,2,2.5,3.2c0.5,1.2,0.9,2.4,0.9,3.7c0,1.4-0.3,2.6-0.7,3.8
		c-0.5,1.1-1.4,2.1-2.6,2.8c-1.3,0.8-3,1.4-5.1,1.8c-2.2,0.5-4.9,0.6-8.3,0.6h-1.8V410.6L-54.6,410.6z M-55.1,404.7
		c2.5,0,4.5-0.1,5.9-0.3c1.4-0.2,2.4-0.5,3.1-0.7c0.6-0.3,1.1-0.6,1.3-1c0.2-0.4,0.2-0.7,0.2-1.1c0-0.8-0.4-1.4-1.1-2.1
		c-0.7-0.5-1.8-0.9-3.2-0.9c-1,0-1.9,0.2-2.6,0.5c-0.7,0.4-1.4,0.8-1.9,1.4c-0.5,0.5-0.9,1.2-1.2,2C-54.9,403.2-55.1,404-55.1,404.7
		z"/>
	<path d="M-31.6,403.1c0-1.8,0.3-3.5,0.9-4.9c0.6-1.4,1.4-2.6,2.5-3.6c1.1-1,2.4-1.7,4-2.3s3.2-0.7,5-0.7c2.3,0,4,0.3,5.2,0.7
		s2.2,1,2.7,1.5c0.4,0.4,0.6,0.8,0.8,1.2c0.2,0.5,0.3,0.9,0.3,1.4c0,0.5-0.1,1.1-0.3,1.5c-0.2,0.5-0.4,0.9-0.6,1.3
		c-0.3,0.4-0.5,0.7-0.7,1c-0.3,0.3-0.4,0.5-0.5,0.5c-0.6-0.3-1.4-0.5-2.3-0.8s-1.9-0.4-3-0.4c-1.4,0-2.6,0.5-3.6,1.3
		c-1,0.8-1.5,2.2-1.5,4.1v16h-8.8V403.1L-31.6,403.1z"/>
	<path d="M-6.6,388c0-1.4,0.5-2.5,1.3-3.1c0.9-0.6,2-0.9,3.4-0.9c1,0,1.9,0.1,2.8,0.4c0.8,0.3,1.4,0.4,1.5,0.5v7.6h6.5
		c1.7,0,2.9,0.4,3.6,1c0.7,0.7,1.1,1.7,1.1,3.1c0,1-0.2,1.9-0.5,2.7c-0.3,0.8-0.5,1.4-0.6,1.6h-10v8.8c0,0.9,0.1,1.5,0.4,2.1
		s0.6,0.9,1,1.2s0.8,0.5,1.4,0.6s1,0.2,1.5,0.2c1.1,0,2-0.2,2.9-0.5c0.9-0.4,1.4-0.6,1.9-0.8l3.5,6.2c-0.4,0.3-0.8,0.6-1.4,1
		c-0.6,0.4-1.4,0.7-2.3,1.1c-0.9,0.4-1.9,0.6-3.1,0.9c-1.1,0.3-2.3,0.4-3.5,0.4c-3.5,0-6.3-0.9-8.3-2.8s-3-4.3-3-7.5L-6.6,388
		L-6.6,388z"/>
</g>
</svg>
